Coordinates
version=1
nRows=20
nColumns=38
inDegrees=no

Units are S.I. units (second, meters, Newtons, ...)
If the header above contains a line with 'inDegrees', this indicates whether rotational values are in degrees (yes) or radians (no).

endheader
time	pelvis_tilt	pelvis_list	pelvis_rotation	pelvis_tx	pelvis_ty	pelvis_tz	hip_flexion_r	hip_adduction_r	hip_rotation_r	knee_angle_r	ankle_angle_r	subtalar_angle_r	mtp_angle_r	hip_flexion_l	hip_adduction_l	hip_rotation_l	knee_angle_l	ankle_angle_l	subtalar_angle_l	mtp_angle_l	lumbar_extension	lumbar_bending	lumbar_rotation	arm_flex_r	arm_add_r	arm_rot_r	elbow_flex_r	pro_sup_r	wrist_flex_r	wrist_dev_r	arm_flex_l	arm_add_l	arm_rot_l	elbow_flex_l	pro_sup_l	wrist_flex_l	wrist_dev_l
9.22	1.04664	1.44192	0.501941	0.823944	0.719972	0.972199	0.0776443	0.0748335	-0.195228	0.266396	0.137333	0	0	-0.0559299	-0.0825312	-0.135456	0	0.0722133	0	0	-0.294303	0.158461	0.119409	0.87195	-0.328715	0.640164	0.707542	1.01275	0	0	0.845544	-0.251587	0.529282	0.655256	1.03896	0	0
9.23	1.03442	1.44064	0.511533	0.823779	0.721299	0.972026	0.0782669	0.0747837	-0.193375	0.266316	0.138172	0	0	-0.0554319	-0.0824294	-0.137139	1.09161e-09	0.073933	0	0	-0.291843	0.157951	0.120404	0.869699	-0.328192	0.6433	0.707046	1.01061	0	0	0.840689	-0.253448	0.525914	0.658122	1.04241	0	0
9.24	1.02186	1.43942	0.521784	0.823558	0.722578	0.971865	0.0791129	0.0745286	-0.191938	0.266551	0.138999	0	0	-0.0547925	-0.0821949	-0.138272	3.71481e-08	0.075622	0	0	-0.289484	0.157418	0.12112	0.867723	-0.327825	0.648108	0.705799	1.00837	0	0	0.836035	-0.255146	0.522555	0.659858	1.04502	0	0
9.25	1.00786	1.43816	0.533681	0.823297	0.723826	0.971683	0.0803465	0.0740939	-0.190867	0.267085	0.139908	0	0	-0.0536708	-0.0818323	-0.139565	0.00104832	0.0776696	0	0	-0.286988	0.156821	0.121826	0.865705	-0.327318	0.651602	0.702961	1.01645	0	0	0.831738	-0.25705	0.521891	0.661899	1.03927	0	0
9.26	0.992949	1.43651	0.546468	0.823004	0.725072	0.971452	0.0819784	0.0738666	-0.19001	0.267737	0.140855	0	0	-0.0521234	-0.0816747	-0.140994	0.00238696	0.0798405	0	0	-0.284152	0.156618	0.12261	0.864313	-0.327862	0.658916	0.700298	1.01426	0	0	0.826973	-0.258315	0.519107	0.662889	1.04247	0	0
9.27	0.976861	1.43457	0.560536	0.822642	0.726307	0.971175	0.0838615	0.0737091	-0.18933	0.268203	0.141835	0	0	-0.0499823	-0.0816849	-0.142696	0.00420477	0.0824338	0	0	-0.280988	0.156694	0.12348	0.863118	-0.329159	0.667123	0.697463	1.0112	0	0	0.822042	-0.259364	0.517315	0.664124	1.04608	0	0
9.28	0.955619	1.43189	0.579416	0.822199	0.727508	0.970795	0.0869652	0.0736618	-0.187942	0.268824	0.142945	0	0	-0.0466521	-0.0817771	-0.144544	0.00614436	0.0852433	0	0	-0.2768	0.157234	0.124539	0.862547	-0.332222	0.681739	0.697111	0.983751	0	0	0.816483	-0.259863	0.514081	0.665245	1.05752	0	0
9.29	0.940412	1.42944	0.59257	0.8217	0.728713	0.97045	0.0888851	0.0738386	-0.186651	0.268677	0.143773	0	0	-0.0444658	-0.0819962	-0.145318	0.00741506	0.0874054	0	0	-0.273547	0.157913	0.125969	0.859814	-0.334532	0.684179	0.697353	0.979434	0	0	0.811735	-0.260218	0.514759	0.665675	1.0585	0	0
9.3	0.929016	1.42704	0.602129	0.821149	0.729928	0.970115	0.0901599	0.0741991	-0.185497	0.268201	0.144483	0	0	-0.0426536	-0.0823974	-0.146222	0.00886025	0.0896054	0	0	-0.270846	0.158871	0.127182	0.856467	-0.336867	0.683555	0.698848	0.975058	0	0	0.806838	-0.260507	0.514989	0.665722	1.05778	0	0
9.31	0.919784	1.4249	0.609755	0.820555	0.731162	0.969801	0.0908231	0.0744639	-0.184633	0.267379	0.145275	0	0	-0.0414747	-0.0826511	-0.146954	0.00973642	0.0916552	0	0	-0.26862	0.159725	0.127932	0.852654	-0.338917	0.679931	0.700839	0.971809	0	0	0.801746	-0.260751	0.514068	0.665685	1.05452	0	0
9.32	0.912136	1.42314	0.615905	0.819945	0.732399	0.96953	0.0910128	0.0744725	-0.183849	0.26646	0.146109	0	0	-0.0408717	-0.0826587	-0.147736	0.0102351	0.0935874	0	0	-0.266944	0.160249	0.128278	0.848437	-0.340582	0.673701	0.703334	0.968716	0	0	0.796361	-0.260796	0.512274	0.665652	1.04988	0	0
9.33	0.904103	1.42165	0.622307	0.819285	0.733598	0.969284	0.0911216	0.0741395	-0.182735	0.265518	0.146969	0	0	-0.0406756	-0.0822413	-0.148314	0.0100188	0.0950931	0	0	-0.26559	0.160432	0.128379	0.844065	-0.342009	0.665992	0.705977	0.96496	0	0	0.790674	-0.26067	0.510209	0.665898	1.04507	0	0
9.34	0.896784	1.42033	0.628065	0.818561	0.734772	0.96905	0.0910641	0.0736404	-0.181684	0.264565	0.147848	0	0	-0.0406187	-0.0816639	-0.148889	0.00983115	0.0965921	0	0	-0.264543	0.160534	0.128109	0.839745	-0.343499	0.658307	0.708242	0.961898	0	0	0.784943	-0.26054	0.508645	0.666632	1.03987	0	0
9.35	0.887062	1.41872	0.636197	0.817778	0.735932	0.968777	0.0916979	0.073013	-0.180882	0.263955	0.148757	0	0	-0.0400253	-0.0810637	-0.149713	0.00970072	0.0978655	0	0	-0.263082	0.160787	0.127587	0.83598	-0.347028	0.659088	0.714053	0.919121	0	0	0.778742	-0.259317	0.502107	0.667234	1.04539	0	0
9.36	0.870837	1.41619	0.650994	0.816945	0.737081	0.968422	0.0939613	0.0724114	-0.180059	0.263666	0.149582	0	0	-0.0378864	-0.0805614	-0.149976	0.00970948	0.0991748	0	0	-0.26025	0.161507	0.12546	0.832947	-0.347977	0.657204	0.714271	0.903403	0	0	0.770384	-0.259213	0.49061	0.672677	1.04101	0	0
9.37	0.831936	1.40949	0.68731	0.815891	0.738502	0.967938	0.101953	0.072472	-0.178455	0.26337	0.148952	0	0	-0.0304264	-0.0805793	-0.15049	0.00927259	0.0996714	0	0	-0.255063	0.168279	0.111623	0.839198	-0.335639	0.662199	0.706345	0.916958	0	0	0.74729	-0.271669	0.458599	0.69474	1.04669	0	0
9.38	0.85648	1.41288	0.663274	0.81507	0.739382	0.96793	0.095242	0.0709559	-0.181129	0.263517	0.151484	0	0	-0.037378	-0.0796044	-0.149564	0.00866505	0.101569	0	0	-0.258564	0.162589	0.123426	0.824028	-0.351556	0.642797	0.713756	0.906696	0	0	0.760204	-0.255169	0.477173	0.672594	1.04364	0	0
9.39	0.854467	1.41131	0.664311	0.814056	0.740511	0.967713	0.095193	0.0706161	-0.181171	0.263378	0.152194	0	0	-0.0378404	-0.0795541	-0.149161	0.00811191	0.102818	0	0	-0.258825	0.163302	0.124329	0.818348	-0.355446	0.637507	0.715319	0.891184	0	0	0.757727	-0.251521	0.478386	0.669948	1.03172	0	0
9.4	0.840178	1.40778	0.677186	0.812983	0.741554	0.967287	0.0988339	0.0705072	-0.179685	0.264378	0.152657	0	0	-0.0343551	-0.0798635	-0.149751	0.00941764	0.105122	0	0	-0.256442	0.165495	0.122654	0.818572	-0.358947	0.657589	0.71387	0.835069	0	0	0.749822	-0.253908	0.480699	0.684536	0.950312	0	0
9.41	0.795186	1.39845	0.719117	0.81167	0.74303	0.966682	0.110104	0.0713382	-0.176285	0.264399	0.150851	0	0	-0.0235775	-0.080479	-0.150507	0.00974699	0.1056	0	0	-0.248921	0.174529	0.109247	0.825397	-0.347035	0.673215	0.706791	0.839764	0	0	0.723734	-0.264779	0.436919	0.711667	0.972828	0	0
